<svg id="Livello_1" data-name="Livello 1" xmlns="http://www.w3.org/2000/svg" width="235" height="235" viewBox="0 0 235 235"><path d="M653,519.08H634.65a96.39,96.39,0,0,0-16.23-36l7.16-7.16a6.87,6.87,0,0,0,0-9.7l-11.8-11.8a6.89,6.89,0,0,0-9.7,0l-7.16,7.16a96.55,96.55,0,0,0-36-16.23V427a4.41,4.41,0,0,0-4.4-4.4h-33.2a4.41,4.41,0,0,0-4.4,4.4v18.38a96.55,96.55,0,0,0-36,16.23l-7.16-7.16a6.89,6.89,0,0,0-9.7,0l-11.8,11.8a6.89,6.89,0,0,0,0,9.7l7.16,7.16a96.39,96.39,0,0,0-16.23,36H426.83a4.41,4.41,0,0,0-4.4,4.4v33.2a4.41,4.41,0,0,0,4.4,4.4h18.38a96.39,96.39,0,0,0,16.23,36l-7.16,7.16a6.89,6.89,0,0,0,0,9.7l11.8,11.8a6.87,6.87,0,0,0,9.7,0l7.16-7.16a96.55,96.55,0,0,0,36,16.23v18.38a4.41,4.41,0,0,0,4.4,4.4h33.2a4.41,4.41,0,0,0,4.4-4.4V634.8a96.55,96.55,0,0,0,36-16.23l7.16,7.16a6.87,6.87,0,0,0,9.7,0l11.8-11.8a6.87,6.87,0,0,0,0-9.7l-7.16-7.16a96.39,96.39,0,0,0,16.23-36H653a4.41,4.41,0,0,0,4.4-4.4v-33.2A4.41,4.41,0,0,0,653,519.08Zm-94.1,35.6a4.41,4.41,0,0,1-4.4,4.4h-29.2a4.41,4.41,0,0,1-4.4-4.4v-29.2a4.41,4.41,0,0,1,4.4-4.4h29.2a4.41,4.41,0,0,1,4.4,4.4Z" transform="translate(-422.43 -422.58)"/></svg>